<?xml version="1.0" standalone="no"?>
<!DOCTYPE svg PUBLIC "-//W3C//DTD SVG 20010904//EN"
 "http://www.w3.org/TR/2001/REC-SVG-20010904/DTD/svg10.dtd">
<svg version="1.0" xmlns="http://www.w3.org/2000/svg"
 width="673.000000pt" height="430.000000pt" viewBox="0 0 673.000000 430.000000"
 preserveAspectRatio="xMidYMid meet">
<metadata>
Created by potrace 1.16, written by Peter Selinger 2001-2019
</metadata>
<g transform="translate(0.000000,430.000000) scale(0.100000,-0.100000)"
fill="#000000" stroke="none">
<path d="M4441 3234 c-33 -14 -71 -66 -71 -98 0 -11 9 -39 21 -63 13 -27 19
-52 15 -66 -4 -12 -20 -71 -36 -132 -31 -120 -86 -258 -127 -318 -49 -71 -128
-88 -196 -42 -46 32 -110 159 -127 255 -6 36 -16 81 -21 101 -13 54 -11 105 6
119 8 7 20 29 26 49 17 56 -7 105 -64 132 -43 21 -45 21 -82 4 -77 -37 -95
-127 -38 -187 38 -40 36 -73 -23 -307 -36 -139 -96 -211 -177 -211 -79 0 -128
47 -174 166 -32 82 -63 204 -63 247 0 13 14 42 31 63 27 34 30 45 26 87 -5 54
-25 82 -73 97 -111 37 -193 -103 -114 -193 29 -33 30 -39 30 -124 0 -74 3 -93
18 -106 10 -10 24 -17 30 -17 25 0 41 -49 52 -155 6 -60 10 -132 8 -160 l-3
-50 105 -2 c156 -3 470 -21 590 -34 138 -15 481 -71 625 -103 151 -34 204 -47
275 -68 36 -11 103 -30 150 -43 106 -29 249 -80 262 -93 17 -17 1 -42 -25 -42
-13 0 -55 11 -93 24 -341 119 -774 214 -1164 256 -58 6 -132 16 -165 21 -33 5
-170 12 -305 16 -135 3 -250 10 -256 15 -8 6 -23 -5 -44 -32 l-32 -41 28 -42
c29 -44 198 -216 255 -260 32 -24 47 -27 174 -36 147 -11 250 -23 400 -46 50
-8 124 -19 165 -25 68 -10 222 -39 325 -61 22 -4 85 -20 140 -35 55 -14 118
-30 140 -35 22 -5 118 -35 213 -66 97 -31 177 -52 181 -47 4 5 29 70 55 144
27 74 82 221 123 325 90 229 133 338 165 425 15 42 32 69 46 76 54 27 72 55
72 110 0 41 -5 59 -24 80 -20 24 -31 28 -79 28 -45 1 -60 -3 -81 -23 -34 -32
-43 -82 -24 -130 14 -34 14 -42 -2 -82 -18 -50 -102 -173 -157 -233 -78 -84
-183 -98 -242 -31 -47 54 -57 120 -42 283 16 169 25 208 54 223 12 6 34 23 50
37 23 22 27 34 27 78 0 48 -3 55 -37 83 -93 77 -203 -3 -175 -127 9 -38 7 -49
-24 -112 -40 -81 -118 -189 -176 -242 -83 -77 -192 -73 -236 8 -39 74 -55 308
-30 471 9 65 17 85 45 117 42 50 45 106 8 148 -31 36 -91 50 -134 32z m-736
-1129 c49 -48 15 -135 -53 -135 -40 0 -82 41 -82 80 0 39 42 80 82 80 17 0 39
-10 53 -25z m639 -57 c54 -49 26 -138 -43 -138 -74 0 -109 85 -55 135 33 31
65 32 98 3z m640 -159 c33 -38 33 -69 1 -103 -33 -36 -86 -36 -114 0 -29 37
-26 70 8 105 39 38 72 38 105 -2z"/>
<path d="M2400 3119 c-19 -6 -69 -35 -111 -64 -42 -29 -92 -62 -111 -72 -19
-10 -55 -36 -80 -58 l-45 -40 -154 3 c-104 3 -163 8 -182 17 -37 19 -54 11
-68 -33 -22 -66 -11 -336 16 -404 20 -50 -186 -157 -302 -158 -43 0 -48 -12
-22 -62 47 -93 358 -436 470 -519 114 -84 239 -109 354 -71 61 21 95 71 95
144 0 92 15 97 110 36 86 -56 110 -78 110 -99 0 -18 -12 -22 -103 -34 -37 -5
-76 -24 -156 -75 -94 -60 -119 -71 -190 -84 -46 -9 -87 -18 -92 -22 -14 -8
-11 -81 5 -119 9 -20 31 -45 56 -60 78 -49 255 -116 410 -156 19 -5 98 -8 175
-8 128 0 145 3 205 27 82 34 98 61 80 130 -7 26 -19 81 -26 122 -6 41 -15 85
-19 98 l-8 23 180 -3 179 -3 42 28 c58 38 55 52 -18 81 -8 4 -28 15 -45 26
-16 11 -39 24 -50 29 -40 19 -2 10 93 -21 131 -44 234 -45 304 -5 85 50 85 64
0 128 -81 62 -264 248 -292 297 -14 25 -31 42 -42 42 -10 0 -18 -4 -18 -10 0
-5 -6 -10 -14 -10 -8 0 -16 -5 -18 -11 -2 -6 -13 -9 -23 -7 -18 4 -18 6 5 15
30 13 98 84 136 144 25 38 28 54 28 119 0 41 -6 105 -13 143 l-13 67 -90 0
-90 0 7 33 c8 36 7 163 -1 190 -7 24 -16 22 -68 -18 -75 -57 -121 -44 -141 40
-11 49 -112 137 -181 159 -31 10 -80 33 -108 52 -57 37 -113 48 -166 33z
m-126 -184 c0 -5 -21 -20 -47 -32 -30 -15 -62 -43 -94 -85 -47 -62 -48 -64
-51 -145 -6 -124 24 -208 95 -273 30 -28 61 -50 69 -50 8 0 32 -11 54 -25 42
-27 60 -31 60 -15 0 34 109 28 388 -21 49 -9 66 -8 78 2 25 20 52 86 59 142
11 82 33 117 100 158 63 38 80 42 52 11 -13 -14 -16 -29 -11 -65 9 -65 1 -85
-62 -162 -54 -66 -56 -71 -48 -109 10 -54 11 -103 1 -149 l-8 -39 33 7 c18 4
42 13 53 20 11 7 35 16 53 20 33 7 33 6 20 -17 -20 -35 -27 -38 -100 -38 -36
0 -68 -4 -70 -9 -5 -13 -117 -62 -178 -77 -99 -24 -160 -17 -180 21 -10 19
-10 29 4 56 21 42 20 55 -5 73 -21 14 -20 15 22 26 24 7 73 14 108 16 36 2 69
8 75 14 5 5 22 10 37 10 15 0 37 9 50 19 22 18 22 20 6 26 -10 4 -37 3 -60 -3
-74 -19 -123 -22 -173 -11 -27 6 -88 14 -136 19 -99 10 -127 20 -88 32 16 5
10 5 -16 2 -25 -3 -45 -1 -49 5 -3 6 -13 11 -21 11 -8 0 -62 28 -119 63 l-105
62 0 52 c0 33 -9 72 -24 105 -47 105 -50 121 -32 156 39 75 120 177 156 197
28 15 105 15 104 0z m480 -10 c21 -10 51 -37 67 -59 32 -47 55 -71 99 -104 33
-26 39 -56 14 -66 -15 -6 -74 45 -74 63 0 11 -84 97 -111 114 -55 36 -228 29
-260 -9 -19 -23 -43 -16 -79 21 -29 30 -31 36 -20 50 20 24 309 16 364 -10z
m-416 -119 c2 -32 -1 -63 -6 -69 -5 -7 -13 -27 -17 -45 -4 -18 -13 -44 -20
-58 -10 -21 -9 -32 9 -78 l21 -53 133 -7 133 -7 37 29 c20 16 47 34 59 41 25
13 92 14 111 2 21 -13 -65 -57 -138 -70 -67 -11 -181 -65 -242 -113 -47 -36
-72 -31 -94 20 -8 20 -26 48 -39 62 -35 37 -90 252 -75 294 11 32 98 117 115
112 6 -1 11 -28 13 -60z m-321 37 c-20 -35 -57 -128 -57 -144 0 -11 6 -30 14
-42 22 -33 45 -142 34 -161 -7 -13 -13 -14 -30 -5 -21 11 -68 8 -102 -6 -18
-8 -19 -5 -12 43 6 47 3 58 -26 111 -31 56 -32 59 -15 84 9 14 46 42 81 62 35
20 70 42 76 50 13 15 45 21 37 8z m662 -4 c64 -21 82 -33 98 -64 9 -16 31 -50
50 -74 38 -51 32 -71 -23 -71 -37 0 -54 21 -54 67 0 23 -9 33 -45 56 -25 15
-63 30 -85 33 -36 6 -40 4 -46 -20 -8 -32 30 -94 63 -102 37 -10 58 0 56 24
-4 34 14 26 21 -9 11 -58 10 -59 -53 -59 -39 0 -61 4 -64 13 -3 9 -9 9 -29 -2
-21 -11 -32 -11 -61 0 -30 10 -33 15 -24 29 8 14 5 24 -11 45 -22 27 -29 55
-14 55 12 -1 52 -37 52 -48 0 -14 29 -36 38 -28 4 4 0 13 -9 19 -8 7 -22 27
-30 45 -7 17 -17 32 -21 32 -5 0 -8 9 -8 20 0 15 7 20 28 20 16 0 37 7 48 15
23 17 75 19 123 4z m-652 -470 c87 -117 123 -172 123 -188 0 -10 11 -40 25
-68 17 -36 31 -53 47 -55 22 -4 22 -5 -4 -16 -15 -6 -33 -20 -40 -32 -16 -26
-26 -25 -79 4 -24 13 -64 30 -89 36 -129 35 -264 127 -291 198 -12 30 -12 82
0 82 5 0 17 -12 27 -27 31 -49 117 -133 148 -148 40 -17 99 -27 120 -19 13 5
15 15 10 48 -8 50 -55 158 -90 203 l-25 33 40 0 c36 0 43 -5 78 -51z m1164
-316 c0 -5 2 -18 5 -31 2 -14 -2 -25 -11 -28 -8 -4 -15 -11 -15 -16 0 -6 -8
-16 -17 -23 -16 -12 -16 -18 -5 -60 20 -74 -4 -98 -158 -162 -89 -37 -158 -52
-267 -56 -101 -4 -103 -4 -138 26 -20 16 -34 34 -32 41 2 7 49 11 148 11 127
0 151 3 204 23 101 40 121 54 194 142 60 71 71 90 67 113 -4 19 -1 27 9 27 8
0 15 -3 16 -7z"/>
<path d="M934 2546 c-76 -33 -99 -123 -45 -183 32 -34 69 -58 79 -49 3 3 -4
16 -16 29 -11 12 -25 34 -31 49 -21 55 24 112 69 88 16 -9 108 -102 176 -179
42 -47 56 -42 26 10 -10 19 -34 61 -52 94 -67 123 -136 170 -206 141z"/>
<path d="M810 2184 c-192 -31 -288 -95 -359 -236 -22 -46 -44 -98 -47 -117
l-7 -34 58 7 c43 5 68 14 96 37 l39 31 128 -1 c252 -2 243 -4 328 63 42 33 96
83 120 112 l45 53 -20 20 c-18 18 -33 21 -112 21 -61 0 -88 3 -84 11 5 6 26 8
60 4 55 -7 103 1 89 15 -8 8 -105 19 -214 24 -25 1 -79 -3 -120 -10z"/>
<path d="M1346 2045 c19 -15 19 -15 -1 -30 -11 -9 -24 -14 -31 -11 -15 6 -114
-18 -157 -39 -42 -20 -92 -73 -112 -119 -23 -52 -53 -167 -64 -244 -9 -61 -9
-78 5 -103 9 -19 13 -41 9 -59 -3 -16 1 -52 9 -81 9 -29 16 -68 16 -88 0 -21
10 -49 26 -73 22 -31 33 -38 59 -38 40 0 153 64 189 107 14 17 39 36 55 42 18
8 37 29 52 57 12 25 31 50 41 55 24 13 48 61 48 97 0 16 7 46 15 65 10 24 15
69 15 131 0 80 -4 104 -27 158 -14 35 -33 69 -42 77 -14 12 -12 13 17 7 28 -5
33 -3 30 12 -2 9 -14 19 -27 20 -13 2 -47 19 -77 38 -54 35 -84 46 -48 19z"/>
<path d="M2087 984 c-4 -4 -7 -18 -7 -30 0 -13 -6 -41 -14 -61 -7 -21 -19 -58
-26 -83 -10 -38 -22 -69 -38 -102 -2 -5 5 -8 16 -8 16 0 21 9 27 48 9 62 13
67 37 45 19 -17 20 -17 38 5 36 44 42 14 10 -49 -17 -33 -18 -40 -6 -45 31
-12 61 0 64 26 4 33 50 165 73 211 20 40 17 49 -18 49 -16 0 -33 -14 -56 -46
l-32 -46 -5 44 c-4 37 -8 43 -30 46 -14 2 -29 0 -33 -4z"/>
<path d="M2321 973 c-11 -7 -28 -29 -37 -48 -15 -31 -15 -40 1 -106 11 -52 13
-75 5 -83 -13 -13 -30 8 -30 37 0 30 -16 19 -28 -20 -14 -46 -9 -53 37 -53 57
0 97 59 88 126 -3 22 -9 60 -13 87 -4 32 -3 47 5 47 10 0 15 -20 12 -47 -1 -7
5 -13 13 -13 15 0 43 67 32 77 -12 12 -66 10 -85 -4z"/>
<path d="M2545 978 c-2 -7 -8 -29 -14 -48 -23 -85 -69 -202 -80 -210 -25 -15
7 -21 90 -18 80 3 96 8 84 28 -4 7 -12 7 -25 0 -14 -7 -19 -6 -24 6 -5 13 -9
14 -21 4 -24 -20 -28 -6 -12 42 9 27 22 44 33 47 28 5 44 21 44 42 0 22 -11
24 -28 7 -9 -9 -12 -7 -12 9 0 12 5 25 10 28 6 3 10 15 10 26 0 25 16 25 23
-1 9 -33 29 -23 25 13 -3 31 -5 32 -51 35 -32 2 -49 -1 -52 -10z"/>
<path d="M2683 984 c-10 -4 -11 -24 -7 -74 5 -51 3 -75 -9 -99 -9 -17 -11 -33
-6 -37 5 -3 9 -20 9 -39 l0 -33 85 0 c76 0 85 2 85 19 0 38 23 69 59 79 43 12
50 17 80 55 l24 30 -8 -30 c-17 -74 -17 -116 0 -136 26 -28 57 -24 98 14 48
43 76 96 83 162 6 45 4 59 -11 75 -29 32 -61 25 -110 -24 l-44 -44 -6 29 c-9
39 -40 59 -95 59 -58 0 -67 -7 -73 -55 -4 -38 -38 -144 -60 -192 -6 -13 -16
-23 -24 -23 -16 0 -19 141 -2 171 7 15 7 24 -1 34 -6 8 -10 24 -8 37 2 18 -2
23 -22 25 -14 1 -31 -1 -37 -3z"/>
<path d="M3236 978 c-36 -121 -72 -228 -83 -246 -12 -19 -12 -23 1 -28 22 -9
71 0 69 12 -3 18 24 88 36 92 15 5 14 -12 -4 -54 -18 -43 -13 -54 25 -54 37 0
41 7 44 79 2 47 9 66 29 90 39 47 43 69 16 97 -18 20 -32 24 -76 24 -34 0 -55
-5 -57 -12z"/>
<path d="M3426 975 c-20 -21 -20 -35 0 -49 13 -10 12 -22 -17 -109 -17 -53
-36 -97 -41 -97 -5 0 -6 -4 -3 -10 3 -5 23 -10 44 -10 38 0 39 0 46 46 4 26
10 54 15 63 4 9 16 42 26 73 14 46 21 55 31 46 17 -14 31 -1 35 32 3 24 0 25
-58 28 -46 2 -66 -1 -78 -13z"/>
<path d="M3693 983 c-7 -2 -13 -13 -13 -23 0 -29 -62 -214 -78 -232 -13 -16
-13 -18 1 -24 8 -3 28 -4 44 -2 23 2 29 9 35 38 17 85 20 90 44 90 16 0 28 8
36 25 13 29 5 43 -16 26 -23 -19 -26 2 -6 44 17 37 19 38 25 18 4 -13 11 -23
15 -23 9 0 20 52 13 62 -5 9 -81 9 -100 1z"/>
<path d="M3833 983 c-7 -2 -13 -14 -13 -26 0 -29 -57 -206 -72 -224 -18 -22 4
-35 57 -31 36 2 51 8 59 23 6 11 15 23 20 26 4 4 4 9 -1 12 -6 4 -20 -3 -32
-14 -12 -12 -25 -19 -28 -16 -2 3 10 45 27 94 18 48 35 98 37 111 3 12 9 22
14 22 5 0 9 7 9 15 0 15 -48 20 -77 8z"/>
<path d="M4003 961 c-32 -23 -46 -44 -67 -98 -31 -81 -33 -124 -8 -146 30 -27
59 -20 105 26 65 65 95 176 61 225 -20 30 -43 28 -91 -7z"/>
<path d="M4165 980 c-2 -3 -9 -49 -14 -101 -6 -52 -14 -113 -17 -136 -6 -39
-5 -43 14 -43 15 0 27 13 43 48 l23 47 5 -44 c10 -77 30 -67 86 42 36 71 38
79 23 88 -13 7 -16 17 -11 42 3 18 10 38 16 45 11 14 13 14 -86 17 -43 1 -79
-1 -82 -5z"/>
<path d="M4368 972 c-8 -9 -8 -16 2 -25 10 -9 13 -9 17 1 6 15 33 16 33 1 0
-24 -64 -205 -78 -221 -13 -16 -13 -18 0 -23 9 -4 37 -5 64 -3 42 3 49 6 52
26 4 23 -13 31 -21 10 -2 -7 -8 -10 -12 -6 -4 4 -1 29 7 55 13 40 19 47 37 45
14 -2 24 5 33 22 13 30 5 44 -16 27 -23 -19 -25 0 -5 44 16 37 18 38 25 18 3
-13 10 -23 14 -23 9 0 20 52 13 62 -8 14 -153 5 -165 -10z"/>
<path d="M4573 983 c-7 -2 -13 -16 -13 -30 0 -33 -61 -216 -74 -225 -18 -12 9
-30 40 -26 22 2 30 9 32 28 2 14 8 29 13 35 5 5 9 17 9 27 0 10 6 18 14 18 12
0 13 -6 4 -32 -19 -61 -16 -73 18 -76 28 -3 32 0 39 30 4 18 8 49 9 69 1 31
49 112 58 99 11 -15 35 -134 31 -151 -8 -28 -27 -18 -34 17 l-6 29 -17 -39
c-19 -43 -12 -56 32 -56 64 0 104 75 84 161 -15 62 -15 99 -2 99 6 0 10 -13
10 -30 0 -34 14 -39 30 -11 18 35 12 58 -17 64 -36 7 -80 -19 -89 -52 l-7 -26
-11 26 c-21 50 -35 59 -90 58 -28 0 -57 -3 -63 -6z"/>
</g>
</svg>
